<svg xmlns="http://www.w3.org/2000/svg" version="1.1" xmlns:xlink="http://www.w3.org/1999/xlink" xmlns:svgjs="http://svgjs.dev/svgjs" width="1000" height="623" viewBox="0 0 1000 623"><g transform="matrix(1,0,0,1,-0.6060606060606233,0.2522267206477409)"><svg viewBox="0 0 396 247" data-background-color="#2424c9" preserveAspectRatio="xMidYMid meet" height="623" width="1000" xmlns="http://www.w3.org/2000/svg" xmlns:xlink="http://www.w3.org/1999/xlink"><g id="tight-bounds" transform="matrix(1,0,0,1,0.2400000000000091,-0.09999999999999432)"><svg viewBox="0 0 395.52 247.2" height="247.2" width="395.52"><g><svg></svg></g><g><svg viewBox="0 0 395.52 247.2" height="247.2" width="395.52"><g><g><path xmlns="http://www.w3.org/2000/svg" d="M88.997 158.773l4.211-8.09h23.174l-18.559 35.086h-18.171l-18.885-35.086 23.986 0zM154.93 32.099h21.285l0 64.418-23.908 0 0.027-13.801-7.3 13.801-23.634 0zM176.215 215.101h-24.141l0.127-64.418h24.014zM24.881 84.014l0.025 12.503-23.906 0v-64.418h21.545l33.793 64.418h-24.727zM25.141 215.101h-24.141l0-64.418 24.013 0zM307.302 158.773l4.211-8.09 23.174 0-18.56 35.086h-18.17l-18.886-35.086 23.987 0zM373.235 32.099h21.285l0 64.418-23.908 0 0.027-13.801-7.3 13.801-23.634 0zM394.52 215.101h-24.141l0.127-64.418h24.014zM243.186 84.014l0.025 12.503-23.906 0v-64.418h21.545l33.793 64.418-24.727 0zM243.446 215.101h-24.141l0-64.418 24.013 0z" fill="#ffffff" fill-rule="nonzero" stroke="none" stroke-width="1" stroke-linecap="butt" stroke-linejoin="miter" stroke-miterlimit="10" stroke-dasharray="" stroke-dashoffset="0" font-family="none" font-weight="none" font-size="none" text-anchor="none" style="mix-blend-mode: normal" data-fill-palette-color="tertiary"></path></g></g><g transform="matrix(1,0,0,1,0,101.23921207117877)"><svg viewBox="0 0 395.52 44.721575857642456" height="44.721575857642456" width="395.52"><g><svg viewBox="0 0 395.52 44.721575857642456" height="44.721575857642456" width="395.52"><g><svg viewBox="0 0 490.0213569852489 55.40687522320161" height="44.721575857642456" width="395.52"><g transform="matrix(1,0,0,1,94.50135698524883,7.657534853568386)"><svg viewBox="0 0 395.52000000000004 40.09180551606484" height="40.09180551606484" width="395.52000000000004"><g><svg viewBox="0 0 395.52000000000004 40.09180551606484" height="40.09180551606484" width="395.52000000000004"><g><svg viewBox="0 0 395.52000000000004 40.09180551606484" height="40.09180551606484" width="395.52000000000004"><g transform="matrix(1,0,0,1,0,0)"><svg width="395.52000000000004" viewBox="4.150000095367432 -35.29999923706055 351.6700134277344 35.64999771118164" height="40.09180551606484" data-palette-color="#ffffff"><path d="M21.1-10.85L33.8-35.25 37.9-35.25 37.9 0 33.25 0 33.3-25.5 22.8-5.65 19.3-5.65 8.75-25.25 8.8 0 4.15 0 4.15-35.25 8.3-35.25 21.1-10.85ZM55.75-25Q60.65-25 63.02-22.55 65.4-20.1 65.4-15.1L65.4-15.1 65.4 0 60.55 0 60.55-4.05Q59.6-1.9 57.72-0.78 55.85 0.35 53.35 0.35L53.35 0.35Q50.95 0.35 48.95-0.63 46.95-1.6 45.82-3.35 44.7-5.1 44.7-7.25L44.7-7.25Q44.7-9.9 46.07-11.43 47.45-12.95 50.62-13.6 53.8-14.25 59.35-14.25L59.35-14.25 60.5-14.25 60.5-15.7Q60.5-18.5 59.32-19.75 58.15-21 55.5-21L55.5-21Q51.35-21 47.2-18.45L47.2-18.45 45.7-22Q47.65-23.35 50.42-24.18 53.2-25 55.75-25L55.75-25ZM54.25-3.4Q57-3.4 58.75-5.28 60.5-7.15 60.5-10.1L60.5-10.1 60.5-11.4 59.6-11.4Q55.7-11.4 53.6-11.05 51.5-10.7 50.6-9.88 49.7-9.05 49.7-7.5L49.7-7.5Q49.7-5.75 50.97-4.58 52.25-3.4 54.25-3.4L54.25-3.4ZM85.45-25Q94.2-25 94.2-15.15L94.2-15.15 94.2 0 89.15 0 89.15-14.9Q89.15-18 87.92-19.45 86.7-20.9 84.1-20.9L84.1-20.9Q81.05-20.9 79.2-19 77.35-17.1 77.35-13.9L77.35-13.9 77.35 0 72.3 0 72.3-24.4 77.25-24.4 77.25-20.5Q78.45-22.7 80.6-23.85 82.75-25 85.45-25L85.45-25ZM118.54-35.25L123.59-35.25 123.59 0 118.59 0 118.59-4.2Q117.49-2 115.39-0.83 113.29 0.35 110.54 0.35L110.54 0.35Q107.39 0.35 104.92-1.25 102.44-2.85 101.07-5.75 99.69-8.65 99.69-12.4L99.69-12.4Q99.69-16.2 101.07-19.05 102.44-21.9 104.89-23.45 107.34-25 110.54-25L110.54-25Q113.29-25 115.37-23.83 117.44-22.65 118.54-20.5L118.54-20.5 118.54-35.25ZM111.74-3.65Q115.04-3.65 116.82-5.9 118.59-8.15 118.59-12.3L118.59-12.3Q118.59-16.45 116.82-18.7 115.04-20.95 111.74-20.95L111.74-20.95Q108.44-20.95 106.62-18.73 104.79-16.5 104.79-12.4L104.79-12.4Q104.79-8.3 106.64-5.98 108.49-3.65 111.74-3.65L111.74-3.65ZM141.24 0.35Q137.64 0.35 134.92-1.2 132.19-2.75 130.72-5.63 129.24-8.5 129.24-12.3L129.24-12.3Q129.24-16.15 130.72-19.03 132.19-21.9 134.92-23.45 137.64-25 141.24-25L141.24-25Q144.84-25 147.57-23.45 150.29-21.9 151.77-19.03 153.24-16.15 153.24-12.3L153.24-12.3Q153.24-8.5 151.77-5.63 150.29-2.75 147.57-1.2 144.84 0.35 141.24 0.35L141.24 0.35ZM141.24-3.65Q144.59-3.65 146.37-5.85 148.14-8.05 148.14-12.3L148.14-12.3Q148.14-16.5 146.34-18.73 144.54-20.95 141.24-20.95L141.24-20.95Q137.94-20.95 136.14-18.73 134.34-16.5 134.34-12.3L134.34-12.3Q134.34-8.05 136.12-5.85 137.89-3.65 141.24-3.65L141.24-3.65ZM163.89 0L158.84 0 158.84-35.25 163.89-35.25 163.89 0ZM175.99 0L170.94 0 170.94-24.4 175.99-24.4 175.99 0ZM170.59-30.05L170.59-35.3 176.39-35.3 176.39-30.05 170.59-30.05ZM196.18-25Q204.93-25 204.93-15.15L204.93-15.15 204.93 0 199.88 0 199.88-14.9Q199.88-18 198.66-19.45 197.43-20.9 194.83-20.9L194.83-20.9Q191.78-20.9 189.93-19 188.08-17.1 188.08-13.9L188.08-13.9 188.08 0 183.03 0 183.03-24.4 187.98-24.4 187.98-20.5Q189.18-22.7 191.33-23.85 193.48-25 196.18-25L196.18-25ZM216.88 0L211.83 0 211.83-24.4 216.88-24.4 216.88 0ZM211.48-30.05L211.48-35.3 217.28-35.3 217.28-30.05 211.48-30.05ZM254.73-10.85L267.43-35.25 271.53-35.25 271.53 0 266.88 0 266.93-25.5 256.43-5.65 252.93-5.65 242.38-25.25 242.43 0 237.78 0 237.78-35.25 241.93-35.25 254.73-10.85ZM284.22 0L279.17 0 279.17-24.4 284.22-24.4 284.22 0ZM278.82-30.05L278.82-35.3 284.62-35.3 284.62-30.05 278.82-30.05ZM305.77-25L306.12-20.75 303.07-20.45Q299.47-20.1 297.9-18.25 296.32-16.4 296.32-13.55L296.32-13.55 296.32 0 291.27 0 291.27-24.4 296.17-24.4 296.17-20.15Q298.12-24.45 304.12-24.9L304.12-24.9 305.77-25ZM319.77 0.35Q316.07 0.35 313.34-1.2 310.62-2.75 309.14-5.58 307.67-8.4 307.67-12.2L307.67-12.2Q307.67-16 309.19-18.9 310.72-21.8 313.49-23.4 316.27-25 319.97-25L319.97-25Q322.52-25 324.89-24.15 327.27-23.3 328.77-21.85L328.77-21.85 327.22-18.25Q323.92-20.95 320.37-20.95L320.37-20.95Q316.87-20.95 314.89-18.68 312.92-16.4 312.92-12.25L312.92-12.25Q312.92-8.15 314.87-5.93 316.82-3.7 320.37-3.7L320.37-3.7Q323.92-3.7 327.22-6.4L327.22-6.4 328.77-2.75Q327.17-1.3 324.77-0.48 322.37 0.35 319.77 0.35L319.77 0.35ZM343.82 0.35Q340.22 0.35 337.49-1.2 334.77-2.75 333.29-5.63 331.82-8.5 331.82-12.3L331.82-12.3Q331.82-16.15 333.29-19.03 334.77-21.9 337.49-23.45 340.22-25 343.82-25L343.82-25Q347.42-25 350.14-23.45 352.87-21.9 354.34-19.03 355.82-16.15 355.82-12.3L355.82-12.3Q355.82-8.5 354.34-5.63 352.87-2.75 350.14-1.2 347.42 0.35 343.82 0.35L343.82 0.35ZM343.82-3.65Q347.17-3.65 348.94-5.85 350.72-8.05 350.72-12.3L350.72-12.3Q350.72-16.5 348.92-18.73 347.12-20.95 343.82-20.95L343.82-20.95Q340.52-20.95 338.72-18.73 336.92-16.5 336.92-12.3L336.92-12.3Q336.92-8.05 338.69-5.85 340.47-3.65 343.82-3.65L343.82-3.65Z" opacity="1" transform="matrix(1,0,0,1,0,0)" fill="#ffffff" class="undefined-text-0" data-fill-palette-color="primary" id="text-0"></path></svg></g></svg></g></svg></g></svg></g><g><svg viewBox="0 0 88.65100035712258 55.40687522320161" height="55.40687522320161" width="88.65100035712258"><g><svg xmlns="http://www.w3.org/2000/svg" xmlns:xlink="http://www.w3.org/1999/xlink" version="1.1" x="0" y="0" viewBox="4 11 48 30" enable-background="new 0 0 52 52" xml:space="preserve" height="55.40687522320161" width="88.65100035712258" class="icon-icon-0" data-fill-palette-color="accent" id="icon-0"><g fill="#111111" data-fill-palette-color="accent"><polygon points="4,34.4099731 15.1700439,34.4099731 12.8166504,38.9983521 10.9210815,38.9983521 10.9210815,40.9983521    11.7908936,40.9983521 11.7900391,41 30.2200317,41 30.2191772,40.9983521 31.0949097,40.9983521 31.0949097,38.9983521    29.1934204,38.9983521 26.8400269,34.4099731 38,34.4099731 38,11 4,11  " fill="#111111" data-fill-palette-color="accent"></polygon><path d="M40 11v30h12V11H40zM47.002 36.998h-2v-6h2V36.998zM48.002 26.998h-4v-2h4V26.998zM48.002 21.998h-4v-2h4V21.998zM48.002 16.998h-4v-2h4V16.998z" fill="#111111" data-fill-palette-color="accent"></path></g></svg></g></svg></g></svg></g></svg></g></svg></g></svg></g><defs></defs></svg><rect width="395.52" height="247.2" fill="none" stroke="none" visibility="hidden"></rect></g></svg></g></svg>